<?xml version="1.0" ?><svg id="Layer_1" style="enable-background:new 0 0 512 512;" version="1.1" viewBox="0 0 512 512" xml:space="preserve" xmlns="http://www.w3.org/2000/svg" xmlns:xlink="http://www.w3.org/1999/xlink"><style type="text/css">
	.st0{fill:none;stroke:#000000;stroke-width:2;stroke-linecap:round;stroke-linejoin:round;stroke-miterlimit:10;}
	.st1{stroke:#000000;stroke-width:2;stroke-linecap:round;stroke-linejoin:round;stroke-miterlimit:10;}
	.st2{fill:#FFFFFF;}
</style><g><g><path d="M488.44,129.11H23.56C11.12,129.11,1,118.99,1,106.55V29.29C1,16.85,11.12,6.73,23.56,6.73h464.87    c12.44,0,22.56,10.12,22.56,22.56v77.26C511,118.99,500.88,129.11,488.44,129.11z M23.56,22.18c-3.92,0-7.11,3.19-7.11,7.11v77.26    c0,3.92,3.19,7.11,7.11,7.11h464.87c3.92,0,7.11-3.19,7.11-7.11V29.29c0-3.92-3.19-7.11-7.11-7.11H23.56z"/></g><g><path d="M488.44,282.66H23.56C11.12,282.66,1,272.54,1,260.1v-77.26c0-12.44,10.12-22.56,22.56-22.56h464.87    c12.44,0,22.56,10.12,22.56,22.56v77.26C511,272.54,500.88,282.66,488.44,282.66z M23.56,175.73c-3.92,0-7.11,3.19-7.11,7.11    v77.26c0,3.92,3.19,7.11,7.11,7.11h464.87c3.92,0,7.11-3.19,7.11-7.11v-77.26c0-3.92-3.19-7.11-7.11-7.11H23.56z"/></g><g><path d="M488.44,436.22H23.56C11.12,436.22,1,426.09,1,413.65v-77.25c0-12.44,10.12-22.56,22.56-22.56h464.87    c12.44,0,22.56,10.12,22.56,22.56v77.25C511,426.09,500.88,436.22,488.44,436.22z M23.56,329.29c-3.92,0-7.11,3.19-7.11,7.11    v77.25c0,3.92,3.19,7.11,7.11,7.11h464.87c3.92,0,7.11-3.19,7.11-7.11v-77.25c0-3.92-3.19-7.11-7.11-7.11H23.56z"/></g><g><path d="M311.06,229.2H76.19c-4.27,0-7.73-3.46-7.73-7.73c0-4.27,3.46-7.73,7.73-7.73h234.86c4.27,0,7.73,3.46,7.73,7.73    C318.78,225.74,315.32,229.2,311.06,229.2z"/></g><g><path d="M390.62,229.2h-21c-4.27,0-7.73-3.46-7.73-7.73c0-4.27,3.46-7.73,7.73-7.73h21c4.27,0,7.73,3.46,7.73,7.73    C398.34,225.74,394.88,229.2,390.62,229.2z"/></g><g><path d="M454.26,229.2h-21c-4.27,0-7.73-3.46-7.73-7.73c0-4.27,3.46-7.73,7.73-7.73h21c4.27,0,7.73,3.46,7.73,7.73    C461.99,225.74,458.53,229.2,454.26,229.2z"/></g><g><path d="M311.06,382.75H76.19c-4.27,0-7.73-3.46-7.73-7.73s3.46-7.73,7.73-7.73h234.86c4.27,0,7.73,3.46,7.73,7.73    S315.32,382.75,311.06,382.75z"/></g><g><path d="M390.62,382.75h-21c-4.27,0-7.73-3.46-7.73-7.73s3.46-7.73,7.73-7.73h21c4.27,0,7.73,3.46,7.73,7.73    S394.88,382.75,390.62,382.75z"/></g><g><path d="M454.26,382.75h-21c-4.27,0-7.73-3.46-7.73-7.73s3.46-7.73,7.73-7.73h21c4.27,0,7.73,3.46,7.73,7.73    S458.53,382.75,454.26,382.75z"/></g><g><path d="M256,505.27c-4.27,0-7.73-3.46-7.73-7.73v-69.05c0-4.27,3.46-7.73,7.73-7.73c4.27,0,7.73,3.46,7.73,7.73v69.05    C263.73,501.81,260.27,505.27,256,505.27z"/></g><g><path d="M446.79,505.27H65.21c-4.27,0-7.73-3.46-7.73-7.73s3.46-7.73,7.73-7.73h381.57c4.27,0,7.73,3.46,7.73,7.73    S451.05,505.27,446.79,505.27z"/></g><g><path d="M256,329.29c-4.27,0-7.73-3.46-7.73-7.73v-46.62c0-4.27,3.46-7.73,7.73-7.73c4.27,0,7.73,3.46,7.73,7.73v46.62    C263.73,325.83,260.27,329.29,256,329.29z"/></g><g><path d="M256,175.73c-4.27,0-7.73-3.46-7.73-7.73v-46.62c0-4.27,3.46-7.73,7.73-7.73c4.27,0,7.73,3.46,7.73,7.73v46.62    C263.73,172.27,260.27,175.73,256,175.73z"/></g></g></svg>